<svg xmlns="http://www.w3.org/2000/svg" style="display: none;">
  <defs>
    <symbol id="send" width="24" height="24" viewBox="0 0 24 24">
      <path d="M2.01 21 23 12 2.01 3 2 10l15 2-15 2 .01 7Z"/>
    </symbol>
    <symbol id="arrow-right" width="24" height="24" viewBox="0 0 24 24">
      <path d="m14.2 4.8 6.5 6.5.71.7-.7.7-6.5 6.5-1.42-1.4 4.8-4.8H3v-2h14.59l-4.8-4.8 1.42-1.4Z"/>
    </symbol>
    <symbol id="chevron-right" width="24" height="24" viewBox="0 0 24 24">
      <path d="m13.59 12-5.8-5.8 1.42-1.4 6.5 6.5.7.7-.7.7-6.5 6.5-1.42-1.4 5.8-5.8Z"/>
    </symbol>
    <symbol id="github" width="24" height="24" viewBox="0 0 24 24">
      <path d="M12 2a10 10 0 0 0-3.16 19.5c.5.08.66-.23.66-.5v-1.69c-2.77.6-3.36-1.34-3.36-1.34-.46-1.16-1.11-1.47-1.11-1.47-.91-.62.07-.6.07-.6 1 .07 1.53 1.03 1.53 1.03.87 1.52 2.34 1.07 2.91.83.09-.65.35-1.09.63-1.34-2.22-.25-4.55-1.11-4.55-4.92 0-1.11.38-2 1.03-2.71-.1-.25-.45-1.29.1-2.64 0 0 .84-.27 2.75 1.02a9.42 9.42 0 0 1 5 0c1.91-1.29 2.75-1.02 2.75-1.02.55 1.35.2 2.39.1 2.64.65.71 1.03 1.6 1.03 2.71 0 3.82-2.34 4.66-4.57 4.91.36.31.69.92.69 1.85V21c0 .27.16.59.67.5a10.03 10.03 0 0 0 3.9-16.57A10 10 0 0 0 12 2Z"/>
    </symbol>
    <symbol id="menu" width="24" height="24" viewBox="0 0 24 24">
      <path d="M22 6H2V4h20v2ZM2 13h16v-2H2v2Zm0 7h20v-2H2v2Z"/>
    </symbol>
    <symbol id="figma" width="24" height="24" viewBox="0 0 24 24">
      <rect fill="#fff" width="24" height="24" rx="4"/>
  <path d="M3,8.25V18a2,2 0 0,0 2,2h2v-5.5c0-.83.67-1.5,1.5-1.5h4c.83,0,1.5,.67,1.5,1.5v5.5h2a2,2 0 0,0 2-2V8.25L12,13L3,8.25z" fill="#ea4335"/>
  <path d="M21,6a2,2 0 0,0-2-2h-2v7.3l4,2.5V6z" fill="#4285f4"/>
  <path d="M3,6v8.05l4-2.5V4h-2a2,2 0 0,0-2,2z" fill="#34a853"/>
  <rect opacity="0" fill="#fff" width="24" height="24"/>
  <path d="M7,4v5.38l5,3.12l5-3.12V4h-2v4l-3,1.88L9,8V4H7z" fill="#fbbc04"/>
    </symbol>
    <symbol id="copy" width="24" height="24" viewBox="0 0 24 24">
      <path d="M3 2h12v4H7v10H3V2Zm6 20V8h12v11l-3 3H9Z"/>
    </symbol>
    <symbol id="error" width="24" height="24" viewBox="0 0 24 24">
      <path d="M19.7 19H4.3L12 5.07 19.7 19ZM11.12 2.52l-9.39 17L2.61 21h18.78l.88-1.48-9.4-17h-1.75ZM11 14v-4h2v4h-2Zm0 3v-2h2v2h-2Z"/>
    </symbol>
    <symbol id="arrow-left" width="24" height="24" viewBox="0 0 24 24">
      <path d="m9.8 19.2-6.5-6.5-.71-.7.7-.7 6.5-6.5 1.42 1.4L6.4 11H21v2H6.41l4.8 4.8-1.42 1.4Z"/>
    </symbol>
    <symbol id="check" width="24" height="24" viewBox="0 0 24 24">
      <path d="m20.2 7.2-10 10-.7.71-.7-.7-5-5 1.4-1.42 4.3 4.3 9.3-9.3 1.4 1.42Z"/>
    </symbol>
    <symbol id="link" width="24" height="24" viewBox="0 0 24 24">
      <path d="M9 4 8 5v2h2V6h10v7H10v-2H8v3l1 1h12l1-1V5l-1-1H9Zm2 4H3L2 9v9l1 1h12l1-1v-2h-2v1H4v-7h10v2h2V9l-1-1h-4Z"/>
    </symbol>
    <symbol id="close" width="24" height="24" viewBox="0 0 24 24">
      <path d="M19 6.41 17.59 5 12 10.59 6.41 5 5 6.41 10.59 12 5 17.59 6.41 19 12 13.41 17.59 19 19 17.59 13.41 12 19 6.41Z"/>
    </symbol>
    <symbol id="pause" width="24" height="24" viewBox="0 0 24 24">
      <path d="M6 19h4V5H6v14Zm8-14v14h4V5h-4Z"/>
    </symbol>
    <symbol id="play" width="24" height="24" viewBox="0 0 24 24">
      <path d="M8 5v14l11-7L8 5Z"/>
    </symbol>
    <symbol id="bluesky" width="24" height="24" viewBox="0 0 24 24">
     <rect width="24" height="24" rx="4" fill="#0077b5"/>
  <g fill="#fff">
    <rect x="4.65" y="9.75" width="2.77" height="8.64" rx="0.6"/>
    <rect x="4.79" y="5.6" width="2.49" height="2.49" rx="1.25"/>
    <path d="M14.12 12.7c0-.97.47-1.54 1.36-1.54.86 0 1.25.61 1.25 1.7v5.53h2.77v-6.09c0-2.5-1.47-3.66-3.44-3.66-1.59 0-2.37.86-2.78 1.46v-1.23H10.5v8.52h2.78v-4.69h.02z"/>
  </g>
    </symbol>
        <symbol id="me-logo" width="32" height="32" viewBox="0 0 512 512">
      <rect width="512" height="512" fill="black" />
      <g fill="white">
        <path d="M76.8,435.2 L76.8,76.8 L204.8,76.8 L204.8,128 Z" />
        <path d="M435.2,435.2 L435.2,76.8 L307.2,76.8 L307.2,128 Z" />
        <path d="M204.8,128 L256,76.8 L307.2,128 L307.2,435.2 L256,384 L204.8,435.2 Z" />
      </g>
      <polygon points="502,512 512,502 512,512" fill="white" />
    </symbol>
  </defs>
</svg>
